# xmcd
# 
# Track frame offsets:
#     150
#     12865
#     26184
#     40900
#     56282
#     70782
#     84694
#     98457
#     111823
#     125640
#     140498
#     153298
#     168278
#     181414
# 
# Disc length: 2610
# 
# Revision: 0
# Processed by: cddbd v1.5.2PL0 Copyright (c) Steve Scherf et al.
# Submitted via: fre:ac v1.0.31
# 
DISCID=b00a300e
DTITLE=Various Artist - Liebeslieder der Voksmusik 1
DYEAR=0
DGENRE=Folklore
TTITLE0=Marc Pircher - Für Immer Dein Herzschlag Spür'n
TTITLE1=Mayrhofner - A Schneeweißes G'wandl
TTITLE2=Atlantis - Ich Hab' Dich Unendlich Liebe
TTITLE3=Südtiroler Spitzbuam - Eine Wilde Rose Im Wind
TTITLE4=Servus - Leg' Den Kopf An Meine Schulter
TTITLE5=Orig.Zillertaler Jagerbuam - Samba D'amore
TTITLE6=Mario and Bernd - Allein Der Gedanke
TTITLE7=Mariella - Hör Die Glocke In Deinem Herzen
TTITLE8=Vaiolets - Einmal
TTITLE9=Jungen Zellberger - Brautlied
TTITLE10=Alpen Gigolos - Zwei Goldene Sterne
TTITLE11=Trio Alpin - Nicht Der Schönste Traum
TTITLE12=Steffi and Bert - Mein Herz zerspringt
TTITLE13=Trio Melody - Nur Der Silbermond
EXTD=
EXTT0=
EXTT1=
EXTT2=
EXTT3=
EXTT4=
EXTT5=
EXTT6=
EXTT7=
EXTT8=
EXTT9=
EXTT10=
EXTT11=
EXTT12=
EXTT13=
PLAYORDER=
